<?xml version="1.0" encoding="utf-8"?>
<!-- Generator: Adobe Illustrator 18.1.1, SVG Export Plug-In . SVG Version: 6.00 Build 0)  -->
<svg version="1.1" id="Layer_1" xmlns="http://www.w3.org/2000/svg" xmlns:xlink="http://www.w3.org/1999/xlink" x="0px" y="0px"
	 viewBox="0 0 25 25" enable-background="new 0 0 25 25" xml:space="preserve">
<path fill="#1A9CB0" d="M12.8,1.3C6.5,1.3,1.5,6.4,1.5,12.6s5.1,11.3,11.3,11.3s11.3-5.1,11.3-11.3S19,1.3,12.8,1.3z M17.7,14.3
	L13,18.9c-0.7,0.7-1.8,0.7-2.5,0L10,18.4c-0.7-0.7-0.7-1.8,0-2.5l3-3l-3-3c-0.7-0.7-0.7-1.8,0-2.5l0.5-0.5c0.7-0.7,1.8-0.7,2.5,0
	l4.7,4.7c0.4,0.4,0.5,0.9,0.5,1.3C18.2,13.4,18.1,13.9,17.7,14.3z"/>
</svg>
